<svg xmlns="http://www.w3.org/2000/svg" version="1.0" preserveAspectRatio="xMidYMid meet" viewBox="3.32 2.5 23.22 30"><metadata>Created by potrace 1.10, written by Peter Selinger 2001-2011</metadata><g transform="translate(0.000000,35.000000) scale(0.100000,-0.100000)" fill="#000000" stroke="none"><path d="M72 258 c-17 -37 -33 -76 -37 -87 -8 -27 11 -60 41 -71 13 -5 24 -16 24 -24 0 -10 6 -13 15 -10 10 4 15 0 15 -15 0 -14 5 -19 15 -15 8 4 21 1 29 -5 10 -9 15 -8 19 4 4 8 13 12 22 9 10 -4 15 0 15 10 0 9 7 16 16 16 11 0 15 6 11 20 -3 11 -1 23 4 26 6 4 6 11 -1 19 -6 7 -8 20 -4 29 5 12 2 15 -10 10 -12 -5 -19 0 -23 15 -4 17 -8 19 -19 10 -11 -9 -15 -7 -20 5 -5 13 -9 14 -20 5 -14 -12 -17 -7 -49 81 l-12 35 -31 -67z m51 -46 c28 -64 18 -102 -28 -102 -26 0 -45 18 -45 42 0 23 37 98 48 98 5 0 16 -17 25 -38z m96 -50 c18 -17 17 -60 -2 -79 -17 -17 -67 -26 -67 -12 0 5 -7 9 -15 9 -21 0 -19 17 5 30 13 7 20 21 20 40 0 25 4 29 23 27 12 -1 28 -8 36 -15z"></path><path d="M185 139 c3 -9 -1 -24 -10 -33 -14 -13 -14 -16 -2 -16 8 0 20 7 27 16 11 12 10 18 -4 32 -15 15 -16 15 -11 1z"></path></g></svg>